# xmcd CD database file
#
# Track frame offsets:
#	150
#	18030
#	34820
#	48640
#	63392
#	77960
#	93435
#	105290
#	124445
#	142660
#	168436
#
# Disc length: 2355 seconds
#
# Revision: 0
# Processed by: cddbd v1.4PL0 Copyright (c) Steve Scherf et al.
# Submitted via: CDex 1.40Release
#
DISCID=8809310b
DTITLE=Dolly Parton - The Encore Colection
DYEAR=1900
DGENRE=Country
TTITLE0=Starting All Over Again
TTITLE1=Single Women
TTITLE2=It's All Wrong, But It's All Right
TTITLE3=Working Girl
TTITLE4=But You Know I Love You
TTITLE5=Old Flames (Can't Hold A Candle To You)
TTITLE6=Baby, I'm Burnin'
TTITLE7=God Won't Get You
TTITLE8=The House Of The Rising Sun
TTITLE9=Potential New Boyfriend
TTITLE10=data
EXTD=ID3G: 2
EXTT0=
EXTT1=
EXTT2=
EXTT3=
EXTT4=
EXTT5=
EXTT6=
EXTT7=
EXTT8=
EXTT9=
EXTT10=
PLAYORDER=
